<svg xmlns="http://www.w3.org/2000/svg" xmlns:xlink="http://www.w3.org/1999/xlink" zoomAndPan="magnify" preserveAspectRatio="xMidYMid meet" version="1.0" viewBox="56.32 151.7 266.35 69.77"><defs><g/></defs><g fill="#ffffff" fill-opacity="1"><g transform="translate(178.813328, 203.953967)"><g><path d="M 26.84375 -21.859375 C 26.84375 -22.867188 26.566406 -23.960938 26.015625 -25.140625 C 25.460938 -26.328125 24.703125 -27.488281 23.734375 -28.625 C 22.773438 -29.757812 21.675781 -30.769531 20.4375 -31.65625 C 19.207031 -32.550781 17.929688 -33.203125 16.609375 -33.609375 C 15.285156 -34.023438 13.957031 -34.125 12.625 -33.90625 C 11.300781 -33.6875 10.109375 -33.023438 9.046875 -31.921875 C 8.035156 -30.898438 7.550781 -29.703125 7.59375 -28.328125 C 7.644531 -26.953125 8.226562 -25.710938 9.34375 -24.609375 C 10.15625 -23.785156 11.367188 -22.960938 12.984375 -22.140625 C 14.609375 -21.328125 16.742188 -20.582031 19.390625 -19.90625 C 21.367188 -19.375 23.035156 -18.742188 24.390625 -18.015625 C 25.742188 -17.296875 26.851562 -16.523438 27.71875 -15.703125 C 29.113281 -14.304688 29.929688 -12.738281 30.171875 -11 C 30.421875 -9.257812 30.0625 -7.523438 29.09375 -5.796875 C 28.613281 -4.972656 28.046875 -4.207031 27.390625 -3.5 C 26.742188 -2.800781 26.035156 -2.238281 25.265625 -1.8125 C 24.484375 -1.28125 23.625 -0.832031 22.6875 -0.46875 C 21.75 -0.101562 20.769531 0.179688 19.75 0.390625 C 18.738281 0.609375 17.726562 0.753906 16.71875 0.828125 C 15.707031 0.898438 14.742188 0.914062 13.828125 0.875 C 12.085938 0.726562 10.265625 0.351562 8.359375 -0.25 C 6.453125 -0.851562 4.460938 -1.785156 2.390625 -3.046875 L 1.8125 -3.40625 L 3.546875 -11.4375 L 4.125 -11.296875 C 4.03125 -10.859375 4.125 -10.300781 4.40625 -9.625 C 4.695312 -8.945312 5.0625 -8.242188 5.5 -7.515625 C 5.9375 -6.796875 6.394531 -6.132812 6.875 -5.53125 C 7.351562 -4.925781 7.765625 -4.484375 8.109375 -4.203125 C 9.066406 -3.234375 10.125 -2.46875 11.28125 -1.90625 C 12.445312 -1.351562 13.65625 -0.957031 14.90625 -0.71875 C 16.113281 -0.476562 17.304688 -0.378906 18.484375 -0.421875 C 19.671875 -0.472656 20.796875 -0.644531 21.859375 -0.9375 C 22.429688 -1.082031 22.957031 -1.265625 23.4375 -1.484375 C 23.925781 -1.703125 24.4375 -1.957031 24.96875 -2.25 C 25.445312 -2.582031 25.878906 -2.941406 26.265625 -3.328125 C 26.609375 -3.710938 26.910156 -4.125 27.171875 -4.5625 C 27.441406 -5 27.625 -5.457031 27.71875 -5.9375 C 27.8125 -6.707031 27.765625 -7.40625 27.578125 -8.03125 C 27.234375 -8.945312 26.664062 -9.726562 25.875 -10.375 C 25.082031 -11.03125 24.15625 -11.585938 23.09375 -12.046875 C 22.03125 -12.503906 20.878906 -12.898438 19.640625 -13.234375 C 18.410156 -13.578125 17.195312 -13.941406 16 -14.328125 C 13.675781 -15.003906 11.632812 -15.96875 9.875 -17.21875 C 8.113281 -18.476562 6.832031 -19.914062 6.03125 -21.53125 C 5.238281 -23.144531 5 -24.867188 5.3125 -26.703125 C 5.632812 -28.535156 6.734375 -30.394531 8.609375 -32.28125 C 9.867188 -33.582031 11.519531 -34.390625 13.5625 -34.703125 C 15.613281 -35.015625 17.6875 -35.015625 19.78125 -34.703125 C 21.882812 -34.390625 23.789062 -33.8125 25.5 -32.96875 C 27.21875 -32.125 28.390625 -31.171875 29.015625 -30.109375 L 27.21875 -21.859375 Z M 26.84375 -21.859375 "/></g></g></g><g fill="#ffffff" fill-opacity="1"><g transform="translate(209.712095, 203.953967)"><g><path d="M 28.296875 -0.65625 C 28.390625 -0.65625 28.53125 -0.710938 28.71875 -0.828125 C 28.914062 -0.953125 29.097656 -1.207031 29.265625 -1.59375 C 29.441406 -1.976562 29.601562 -2.53125 29.75 -3.25 C 29.894531 -3.976562 29.96875 -4.945312 29.96875 -6.15625 C 29.820312 -8.46875 29.625 -10.925781 29.375 -13.53125 C 29.132812 -16.132812 28.785156 -18.628906 28.328125 -21.015625 C 27.867188 -23.410156 27.242188 -25.597656 26.453125 -27.578125 C 25.660156 -29.554688 24.613281 -31.097656 23.3125 -32.203125 C 22.050781 -33.265625 20.695312 -33.75 19.25 -33.65625 C 17.800781 -33.507812 16.425781 -32.859375 15.125 -31.703125 C 14.59375 -31.210938 14.132812 -30.726562 13.75 -30.25 C 12.882812 -29.09375 12.125 -27.789062 11.46875 -26.34375 C 10.820312 -24.894531 10.28125 -23.410156 9.84375 -21.890625 C 9.40625 -20.367188 9.085938 -18.820312 8.890625 -17.25 C 8.703125 -15.6875 8.609375 -14.179688 8.609375 -12.734375 L 8.609375 -6.21875 C 8.609375 -5.019531 8.664062 -4.054688 8.78125 -3.328125 C 8.90625 -2.609375 9.0625 -2.039062 9.25 -1.625 C 9.445312 -1.21875 9.640625 -0.953125 9.828125 -0.828125 C 10.023438 -0.710938 10.175781 -0.65625 10.28125 -0.65625 L 10.28125 0 L 1.875 0 L 1.875 -0.65625 C 1.976562 -0.65625 2.125 -0.710938 2.3125 -0.828125 C 2.507812 -0.953125 2.691406 -1.21875 2.859375 -1.625 C 3.023438 -2.039062 3.179688 -2.609375 3.328125 -3.328125 C 3.472656 -4.054688 3.546875 -5.019531 3.546875 -6.21875 L 3.546875 -46.03125 C 3.398438 -47.28125 3.15625 -48.097656 2.8125 -48.484375 C 2.476562 -48.867188 2.21875 -49.0625 2.03125 -49.0625 L 1.8125 -49.71875 L 8.609375 -52.25 L 8.609375 -18.96875 C 8.992188 -21.46875 9.597656 -23.695312 10.421875 -25.65625 C 11.242188 -27.613281 12.207031 -29.242188 13.3125 -30.546875 C 14.425781 -32.085938 15.742188 -33.253906 17.265625 -34.046875 C 18.785156 -34.847656 20.507812 -35.128906 22.4375 -34.890625 C 24.945312 -34.503906 26.9375 -33.550781 28.40625 -32.03125 C 29.875 -30.507812 31.019531 -28.660156 31.84375 -26.484375 C 32.375 -25.085938 32.820312 -23.492188 33.1875 -21.703125 C 33.550781 -19.921875 33.851562 -18.050781 34.09375 -16.09375 C 34.332031 -14.144531 34.523438 -12.171875 34.671875 -10.171875 C 34.816406 -8.171875 34.9375 -6.253906 35.03125 -4.421875 C 35.269531 -2.828125 35.546875 -1.800781 35.859375 -1.34375 C 36.171875 -0.882812 36.425781 -0.65625 36.625 -0.65625 L 36.625 0 L 28.296875 0 Z M 28.296875 -0.65625 "/></g></g></g><g fill="#ffffff" fill-opacity="1"><g transform="translate(246.906454, 203.953967)"><g><path d="M 2.453125 -13.25 C 1.828125 -15.613281 1.679688 -17.953125 2.015625 -20.265625 C 2.359375 -22.578125 3.097656 -24.707031 4.234375 -26.65625 C 5.367188 -28.613281 6.851562 -30.316406 8.6875 -31.765625 C 10.519531 -33.210938 12.617188 -34.253906 14.984375 -34.890625 C 17.347656 -35.515625 19.6875 -35.65625 22 -35.3125 C 24.3125 -34.976562 26.457031 -34.242188 28.4375 -33.109375 C 30.414062 -31.972656 32.128906 -30.488281 33.578125 -28.65625 C 35.023438 -26.820312 36.0625 -24.722656 36.6875 -22.359375 C 37.320312 -19.992188 37.46875 -17.65625 37.125 -15.34375 C 36.789062 -13.03125 36.054688 -10.894531 34.921875 -8.9375 C 33.785156 -6.976562 32.300781 -5.273438 30.46875 -3.828125 C 28.632812 -2.390625 26.535156 -1.351562 24.171875 -0.71875 C 21.804688 -0.09375 19.460938 0.0507812 17.140625 -0.28125 C 14.828125 -0.625 12.679688 -1.363281 10.703125 -2.5 C 8.734375 -3.632812 7.023438 -5.117188 5.578125 -6.953125 C 4.128906 -8.785156 3.085938 -10.882812 2.453125 -13.25 Z M 31.765625 -21.0625 C 31.285156 -22.800781 30.539062 -24.570312 29.53125 -26.375 C 28.519531 -28.1875 27.289062 -29.78125 25.84375 -31.15625 C 24.394531 -32.53125 22.753906 -33.539062 20.921875 -34.1875 C 19.085938 -34.84375 17.15625 -34.90625 15.125 -34.375 C 13.101562 -33.84375 11.472656 -32.84375 10.234375 -31.375 C 9.003906 -29.90625 8.097656 -28.21875 7.515625 -26.3125 C 6.941406 -24.40625 6.65625 -22.398438 6.65625 -20.296875 C 6.65625 -18.203125 6.894531 -16.285156 7.375 -14.546875 C 7.863281 -12.804688 8.613281 -11.019531 9.625 -9.1875 C 10.632812 -7.351562 11.863281 -5.757812 13.3125 -4.40625 C 14.757812 -3.0625 16.398438 -2.050781 18.234375 -1.375 C 20.066406 -0.695312 22 -0.648438 24.03125 -1.234375 C 26.050781 -1.765625 27.6875 -2.765625 28.9375 -4.234375 C 30.195312 -5.703125 31.113281 -7.390625 31.6875 -9.296875 C 32.269531 -11.203125 32.550781 -13.203125 32.53125 -15.296875 C 32.507812 -17.398438 32.253906 -19.320312 31.765625 -21.0625 Z M 31.765625 -21.0625 "/></g></g></g><g fill="#ffffff" fill-opacity="1"><g transform="translate(284.824461, 203.953967)"><g><path d="M 8.46875 -15.34375 C 8.800781 -17.757812 9.28125 -19.953125 9.90625 -21.921875 C 10.539062 -23.898438 11.289062 -25.6875 12.15625 -27.28125 C 13.601562 -30.082031 15.34375 -32.109375 17.375 -33.359375 C 17.5625 -33.503906 17.847656 -33.675781 18.234375 -33.875 C 19.492188 -34.644531 20.820312 -35.125 22.21875 -35.3125 C 23.613281 -35.507812 25.035156 -35.488281 26.484375 -35.25 C 28.992188 -34.8125 31.054688 -33.988281 32.671875 -32.78125 C 34.296875 -31.570312 35.53125 -30.113281 36.375 -28.40625 C 37.21875 -26.695312 37.695312 -24.835938 37.8125 -22.828125 C 37.9375 -20.828125 37.769531 -18.800781 37.3125 -16.75 C 36.851562 -14.695312 36.101562 -12.707031 35.0625 -10.78125 C 34.03125 -8.851562 32.789062 -7.140625 31.34375 -5.640625 C 29.550781 -3.804688 27.460938 -2.320312 25.078125 -1.1875 C 22.691406 -0.0625 20.023438 0.5 17.078125 0.5 C 15.828125 0.5 14.488281 0.363281 13.0625 0.09375 C 11.632812 -0.164062 10.101562 -0.628906 8.46875 -1.296875 L 8.46875 11.21875 C 8.65625 12.46875 8.914062 13.285156 9.25 13.671875 C 9.59375 14.066406 9.835938 14.265625 9.984375 14.265625 L 10.28125 14.90625 L 3.46875 17.515625 L 3.46875 -28.59375 C 3.46875 -29.789062 3.394531 -30.75 3.25 -31.46875 C 3.113281 -32.195312 2.957031 -32.753906 2.78125 -33.140625 C 2.613281 -33.535156 2.429688 -33.800781 2.234375 -33.9375 C 2.046875 -34.082031 1.90625 -34.15625 1.8125 -34.15625 L 1.8125 -34.8125 L 8.46875 -34.8125 Z M 8.46875 -1.875 C 11.507812 -0.675781 14.40625 -0.078125 17.15625 -0.078125 C 19.707031 -0.171875 21.925781 -0.832031 23.8125 -2.0625 C 25.695312 -3.289062 27.238281 -5.015625 28.4375 -7.234375 C 29.351562 -8.828125 30.066406 -10.742188 30.578125 -12.984375 C 31.085938 -15.234375 31.328125 -17.515625 31.296875 -19.828125 C 31.273438 -22.148438 30.960938 -24.359375 30.359375 -26.453125 C 29.753906 -28.546875 28.78125 -30.269531 27.4375 -31.625 C 26.175781 -32.882812 24.785156 -33.707031 23.265625 -34.09375 C 21.742188 -34.476562 20.164062 -34.257812 18.53125 -33.4375 C 17.613281 -32.90625 16.78125 -32.265625 16.03125 -31.515625 C 15.28125 -30.765625 14.566406 -29.910156 13.890625 -28.953125 C 12.691406 -27.160156 11.703125 -25.15625 10.921875 -22.9375 C 10.148438 -20.71875 9.570312 -18.476562 9.1875 -16.21875 L 8.75 -13.09375 C 8.613281 -11.550781 8.546875 -9.960938 8.546875 -8.328125 L 8.46875 -8.328125 Z M 8.46875 -1.875 "/></g></g></g><g fill="#ffffff" fill-opacity="1"><g transform="translate(54.167199, 203.953967)"><g><path d="M 3.046875 -18.8125 C 2.128906 -22.238281 1.921875 -25.640625 2.421875 -29.015625 C 2.929688 -32.398438 4.003906 -35.515625 5.640625 -38.359375 C 7.285156 -41.203125 9.429688 -43.671875 12.078125 -45.765625 C 14.734375 -47.867188 17.773438 -49.378906 21.203125 -50.296875 C 24.628906 -51.210938 28.03125 -51.429688 31.40625 -50.953125 C 34.789062 -50.472656 37.90625 -49.410156 40.75 -47.765625 C 43.59375 -46.128906 46.0625 -43.96875 48.15625 -41.28125 C 50.257812 -38.601562 51.769531 -35.554688 52.6875 -32.140625 C 53.601562 -28.710938 53.816406 -25.320312 53.328125 -21.96875 C 52.847656 -18.613281 51.785156 -15.507812 50.140625 -12.65625 C 48.503906 -9.8125 46.347656 -7.328125 43.671875 -5.203125 C 40.992188 -3.085938 37.941406 -1.570312 34.515625 -0.65625 C 31.097656 0.257812 27.710938 0.476562 24.359375 0 C 21.003906 -0.476562 17.898438 -1.550781 15.046875 -3.21875 C 12.203125 -4.882812 9.71875 -7.039062 7.59375 -9.6875 C 5.476562 -12.34375 3.960938 -15.382812 3.046875 -18.8125 Z M 47.546875 -30.765625 C 46.828125 -33.554688 45.632812 -36.28125 43.96875 -38.9375 C 42.300781 -41.59375 40.320312 -43.859375 38.03125 -45.734375 C 35.738281 -47.617188 33.171875 -48.957031 30.328125 -49.75 C 27.484375 -50.550781 24.515625 -50.539062 21.421875 -49.71875 C 18.285156 -48.894531 15.691406 -47.421875 13.640625 -45.296875 C 11.585938 -43.179688 10.03125 -40.734375 8.96875 -37.953125 C 7.90625 -35.179688 7.328125 -32.226562 7.234375 -29.09375 C 7.140625 -25.957031 7.453125 -22.988281 8.171875 -20.1875 C 8.953125 -17.394531 10.160156 -14.679688 11.796875 -12.046875 C 13.441406 -9.421875 15.421875 -7.164062 17.734375 -5.28125 C 20.046875 -3.394531 22.613281 -2.039062 25.4375 -1.21875 C 28.257812 -0.40625 31.238281 -0.429688 34.375 -1.296875 C 37.46875 -2.117188 40.035156 -3.59375 42.078125 -5.71875 C 44.128906 -7.84375 45.6875 -10.289062 46.75 -13.0625 C 47.8125 -15.832031 48.398438 -18.773438 48.515625 -21.890625 C 48.640625 -25.003906 48.316406 -27.960938 47.546875 -30.765625 Z M 47.546875 -30.765625 "/></g></g></g><g fill="#ffffff" fill-opacity="1"><g transform="translate(108.728737, 203.953967)"><g><path d="M 2.453125 -12.8125 C 1.828125 -15.175781 1.679688 -17.515625 2.015625 -19.828125 C 2.359375 -22.148438 3.097656 -24.285156 4.234375 -26.234375 C 5.367188 -28.191406 6.851562 -29.894531 8.6875 -31.34375 C 10.519531 -32.789062 12.617188 -33.828125 14.984375 -34.453125 C 17.492188 -35.128906 19.90625 -35.285156 22.21875 -34.921875 C 24.53125 -34.554688 26.628906 -33.84375 28.515625 -32.78125 C 30.398438 -31.71875 32.015625 -30.363281 33.359375 -28.71875 C 34.710938 -27.082031 35.679688 -25.300781 36.265625 -23.375 C 34.523438 -23.375 32.648438 -23.300781 30.640625 -23.15625 C 28.640625 -23.007812 26.820312 -22.742188 25.1875 -22.359375 C 26.539062 -22.410156 27.78125 -22.179688 28.90625 -21.671875 C 30.039062 -21.171875 31.019531 -20.484375 31.84375 -19.609375 C 32.664062 -18.742188 33.316406 -17.734375 33.796875 -16.578125 C 34.273438 -15.421875 34.566406 -14.210938 34.671875 -12.953125 C 34.859375 -10.347656 34.3125 -8.09375 33.03125 -6.1875 C 31.757812 -4.28125 30.070312 -2.785156 27.96875 -1.703125 C 25.875 -0.617188 23.523438 0.00390625 20.921875 0.171875 C 18.316406 0.347656 15.796875 0.00390625 13.359375 -0.859375 C 10.921875 -1.734375 8.710938 -3.144531 6.734375 -5.09375 C 4.753906 -7.050781 3.328125 -9.625 2.453125 -12.8125 Z M 6.734375 -18.015625 C 6.878906 -16.617188 7.09375 -15.316406 7.375 -14.109375 C 8.289062 -10.640625 9.691406 -7.914062 11.578125 -5.9375 C 13.460938 -3.957031 15.5 -2.601562 17.6875 -1.875 C 19.882812 -1.15625 22.09375 -1 24.3125 -1.40625 C 26.53125 -1.820312 28.457031 -2.65625 30.09375 -3.90625 C 31.738281 -5.164062 32.9375 -6.769531 33.6875 -8.71875 C 34.4375 -10.675781 34.453125 -12.859375 33.734375 -15.265625 C 33.335938 -16.566406 32.707031 -17.75 31.84375 -18.8125 C 30.976562 -19.875 29.914062 -20.65625 28.65625 -21.15625 C 27.40625 -21.664062 25.984375 -21.859375 24.390625 -21.734375 C 22.796875 -21.617188 21.109375 -21.03125 19.328125 -19.96875 C 17.585938 -18.957031 15.882812 -18.242188 14.21875 -17.828125 C 12.550781 -17.421875 11.019531 -17.269531 9.625 -17.375 C 9.09375 -17.414062 8.582031 -17.472656 8.09375 -17.546875 C 7.613281 -17.617188 7.160156 -17.773438 6.734375 -18.015625 Z M 30.6875 -23.734375 C 30.007812 -25.285156 29.140625 -26.769531 28.078125 -28.1875 C 27.015625 -29.613281 25.820312 -30.832031 24.5 -31.84375 C 23.175781 -32.851562 21.71875 -33.578125 20.125 -34.015625 C 18.53125 -34.453125 16.863281 -34.425781 15.125 -33.9375 C 13.488281 -33.507812 12.113281 -32.765625 11 -31.703125 C 9.894531 -30.640625 9.015625 -29.40625 8.359375 -28 C 7.703125 -26.601562 7.242188 -25.082031 6.984375 -23.4375 C 6.722656 -21.800781 6.640625 -20.1875 6.734375 -18.59375 C 7.554688 -18.207031 8.519531 -17.96875 9.625 -17.875 C 10.976562 -17.78125 12.460938 -17.9375 14.078125 -18.34375 C 15.691406 -18.757812 17.34375 -19.445312 19.03125 -20.40625 C 21.0625 -21.5625 23.085938 -22.378906 25.109375 -22.859375 C 27.140625 -23.347656 29 -23.640625 30.6875 -23.734375 Z M 30.6875 -23.734375 "/></g></g></g><g fill="#ffffff" fill-opacity="1"><g transform="translate(145.561291, 203.953967)"><g><path d="M 32.5 0 L 25.84375 0 L 25.84375 -18.671875 C 25.5 -16.503906 25.085938 -14.523438 24.609375 -12.734375 C 24.128906 -10.953125 23.570312 -9.363281 22.9375 -7.96875 C 22.457031 -6.945312 21.90625 -5.953125 21.28125 -4.984375 C 20.65625 -4.023438 19.914062 -3.144531 19.0625 -2.34375 C 18.21875 -1.550781 17.300781 -0.910156 16.3125 -0.421875 C 15.332031 0.0546875 14.238281 0.296875 13.03125 0.296875 C 11.050781 0.296875 9.445312 -0.113281 8.21875 -0.9375 C 6.988281 -1.757812 6.019531 -2.820312 5.3125 -4.125 C 4.613281 -5.425781 4.128906 -6.894531 3.859375 -8.53125 C 3.597656 -10.175781 3.46875 -11.820312 3.46875 -13.46875 L 3.46875 -28.65625 C 3.46875 -29.863281 3.394531 -30.828125 3.25 -31.546875 C 3.113281 -32.273438 2.957031 -32.832031 2.78125 -33.21875 C 2.613281 -33.601562 2.429688 -33.867188 2.234375 -34.015625 C 2.046875 -34.160156 1.90625 -34.234375 1.8125 -34.234375 L 1.8125 -34.890625 L 8.546875 -34.890625 L 8.546875 -13.46875 C 8.546875 -12.59375 8.59375 -11.539062 8.6875 -10.3125 C 8.78125 -9.082031 8.984375 -7.875 9.296875 -6.6875 C 9.609375 -5.507812 10.066406 -4.4375 10.671875 -3.46875 C 11.273438 -2.507812 12.082031 -1.859375 13.09375 -1.515625 C 14.113281 -1.179688 15.101562 -1.179688 16.0625 -1.515625 C 17.03125 -1.859375 17.910156 -2.390625 18.703125 -3.109375 C 19.503906 -3.835938 20.21875 -4.660156 20.84375 -5.578125 C 21.46875 -6.492188 21.972656 -7.359375 22.359375 -8.171875 C 23.421875 -10.492188 24.265625 -13.332031 24.890625 -16.6875 C 25.523438 -20.039062 25.84375 -24.03125 25.84375 -28.65625 C 25.84375 -29.863281 25.769531 -30.828125 25.625 -31.546875 C 25.476562 -32.273438 25.316406 -32.832031 25.140625 -33.21875 C 24.972656 -33.601562 24.789062 -33.867188 24.59375 -34.015625 C 24.40625 -34.160156 24.265625 -34.234375 24.171875 -34.234375 L 24.171875 -34.890625 L 30.828125 -34.890625 L 30.828125 -6.21875 C 30.828125 -5.019531 30.882812 -4.054688 31 -3.328125 C 31.125 -2.609375 31.28125 -2.039062 31.46875 -1.625 C 31.664062 -1.21875 31.863281 -0.953125 32.0625 -0.828125 C 32.257812 -0.710938 32.40625 -0.65625 32.5 -0.65625 Z M 32.5 0 "/></g></g></g></svg>
